<svg width="28" height="28" viewBox="0 0 28 28" fill="none" xmlns="http://www.w3.org/2000/svg">
<path d="M12.6717 3.92358C13.2627 2.8632 13.5583 2.33301 14.0002 2.33301C14.442 2.33301 14.7376 2.8632 15.3286 3.92358L15.4816 4.19791C15.6496 4.49924 15.7336 4.6499 15.8645 4.74931C15.9955 4.84873 16.1586 4.88563 16.4847 4.95943L16.7817 5.02662C17.9296 5.28633 18.5035 5.41619 18.64 5.85528C18.7766 6.29438 18.3853 6.75191 17.6028 7.66697L17.4003 7.90371C17.1779 8.16374 17.0667 8.29376 17.0168 8.45461C16.9668 8.61546 16.9836 8.78892 17.0172 9.13586L17.0477 9.45173C17.166 10.6726 17.2253 11.2831 16.8677 11.5544C16.5102 11.8258 15.9729 11.5784 14.8981 11.0836L14.6201 10.9555C14.3147 10.8149 14.162 10.7446 14.0002 10.7446C13.8383 10.7446 13.6856 10.8149 13.3802 10.9555L13.1022 11.0836C12.0274 11.5784 11.49 11.8258 11.1326 11.5544C10.7751 11.2831 10.8342 10.6726 10.9525 9.45173L10.9831 9.13586C11.0168 8.78892 11.0336 8.61546 10.9836 8.45461C10.9335 8.29376 10.8224 8.16374 10.6 7.90371L10.3975 7.66697C9.61501 6.75191 9.22375 6.29438 9.36029 5.85528C9.49684 5.41619 10.0708 5.28633 11.2186 5.02662L11.5156 4.95943C11.8417 4.88563 12.0048 4.84873 12.1358 4.74931C12.2667 4.6499 12.3507 4.49924 12.5187 4.19791L12.6717 3.92358Z" stroke="#E2E2E2" stroke-width="1.4"/>
<path d="M22.669 8.96229C22.9646 8.43209 23.1123 8.16699 23.3333 8.16699C23.5543 8.16699 23.702 8.43208 23.9976 8.96227L24.074 9.09945C24.158 9.25011 24.2 9.32545 24.2655 9.37515C24.3309 9.42486 24.4125 9.4433 24.5756 9.4802L24.7241 9.5138C25.298 9.64365 25.585 9.70858 25.6532 9.92813C25.7215 10.1477 25.5259 10.3764 25.1346 10.834L25.0334 10.9523C24.9222 11.0824 24.8667 11.1474 24.8416 11.2278C24.8166 11.3082 24.825 11.3949 24.8418 11.5684L24.8571 11.7264C24.9162 12.3368 24.9459 12.642 24.7671 12.7777C24.5884 12.9133 24.3197 12.7897 23.7824 12.5422L23.6433 12.4783C23.4906 12.4079 23.4143 12.3728 23.3333 12.3728C23.2523 12.3728 23.176 12.4079 23.0233 12.4783L22.8843 12.5422C22.3469 12.7897 22.0782 12.9133 21.8995 12.7777C21.7207 12.642 21.7504 12.3368 21.8095 11.7264L21.8248 11.5684C21.8416 11.3949 21.85 11.3082 21.825 11.2278C21.8 11.1474 21.7444 11.0824 21.6332 10.9523L21.532 10.834C21.1407 10.3764 20.9451 10.1477 21.0134 9.92813C21.0816 9.70858 21.3686 9.64365 21.9425 9.5138L22.091 9.4802C22.2541 9.4433 22.3357 9.42486 22.4011 9.37515C22.4666 9.32545 22.5086 9.25011 22.5926 9.09945L22.669 8.96229Z" stroke="#E2E2E2" stroke-width="1.4"/>
<path d="M4.00257 8.96229C4.29812 8.43209 4.4459 8.16699 4.66683 8.16699C4.88777 8.16699 5.03555 8.43208 5.3311 8.96227L5.40756 9.09945C5.49155 9.25011 5.53354 9.32545 5.59901 9.37515C5.66449 9.42486 5.74604 9.4433 5.90912 9.4802L6.05761 9.5138C6.63154 9.64365 6.9185 9.70858 6.98677 9.92813C7.05505 10.1477 6.85941 10.3764 6.46814 10.834L6.36692 10.9523C6.25573 11.0824 6.20014 11.1474 6.17514 11.2278C6.15012 11.3082 6.15852 11.3949 6.17533 11.5684L6.19064 11.7264C6.24979 12.3368 6.27938 12.642 6.10063 12.7777C5.92189 12.9133 5.65322 12.7897 5.11585 12.5422L4.97682 12.4783C4.82411 12.4079 4.74777 12.3728 4.66683 12.3728C4.5859 12.3728 4.50956 12.4079 4.35685 12.4783L4.21782 12.5422C3.68046 12.7897 3.41178 12.9133 3.23304 12.7777C3.05429 12.642 3.08388 12.3368 3.14303 11.7264L3.15833 11.5684C3.17515 11.3949 3.18355 11.3082 3.15853 11.2278C3.13353 11.1474 3.07794 11.0824 2.96674 10.9523L2.86552 10.834C2.47426 10.3764 2.27862 10.1477 2.34689 9.92813C2.41517 9.70858 2.70213 9.64365 3.27606 9.5138L3.42454 9.4802C3.58763 9.4433 3.66918 9.42486 3.73466 9.37515C3.80013 9.32545 3.84213 9.25011 3.92611 9.09945L4.00257 8.96229Z" stroke="#E2E2E2" stroke-width="1.4"/>
<path d="M5.8335 23.7862H8.47008C9.64942 23.7862 10.8414 23.909 11.9892 24.1455C14.0195 24.5637 16.1571 24.6144 18.2082 24.2825C19.2196 24.1187 20.2138 23.8684 21.1139 23.4339C21.9264 23.0418 22.9215 22.4891 23.59 21.8699C24.2576 21.2517 24.9528 20.2398 25.4462 19.4488C25.8694 18.7707 25.6647 17.9386 24.9954 17.4332C24.252 16.8719 23.1488 16.872 22.4055 17.4335L20.2971 19.0262C19.48 19.6434 18.5875 20.2116 17.5242 20.3812C17.3963 20.4017 17.2624 20.4202 17.1226 20.4364M17.1226 20.4364C17.0805 20.4413 17.0379 20.446 16.9948 20.4504M17.1226 20.4364C17.2927 20.4 17.4615 20.295 17.6201 20.1568C18.3705 19.5018 18.4179 18.398 17.7667 17.6666C17.6158 17.497 17.4389 17.3555 17.2424 17.2382C13.9788 15.2917 8.90115 16.7743 5.8335 18.9497M17.1226 20.4364C17.08 20.4455 17.0373 20.4504 16.9948 20.4504M16.9948 20.4504C16.3841 20.5131 15.6699 20.5293 14.8773 20.4544" stroke="#E2E2E2" stroke-width="1.4" stroke-linecap="round"/>
<path d="M5.8335 18.083C5.8335 17.1165 5.04999 16.333 4.0835 16.333C3.117 16.333 2.3335 17.1165 2.3335 18.083V23.9163C2.3335 24.8828 3.117 25.6663 4.0835 25.6663C5.04999 25.6663 5.8335 24.8828 5.8335 23.9163V18.083Z" stroke="#E2E2E2" stroke-width="1.4"/>
</svg>
