<svg width="28" height="28" viewBox="0 0 28 28" fill="none" xmlns="http://www.w3.org/2000/svg">
<path d="M11.1254 8.06028C11.1254 6.83019 12.2348 5.83301 13.6034 5.83301C14.9719 5.83301 16.0814 6.83019 16.0814 8.06028C16.0814 8.63921 15.8722 9.16656 15.5081 9.56263C14.8108 10.3212 13.7686 11.0853 13.7686 12.0694V12.4012M13.7686 12.4012C14.622 12.3913 15.4788 12.6284 16.1987 13.1137L24.87 18.9591C26.3941 19.9864 25.5857 22.1663 23.6806 22.1663H4.31979C2.43524 22.1663 1.61392 20.0253 3.09802 18.9813L11.3763 13.1582C12.0791 12.6638 12.9222 12.411 13.7686 12.4012Z" stroke="#E2E2E2" stroke-width="1.4" stroke-linecap="round"/>
</svg>
