<svg width="25" height="25" viewBox="0 0 25 25" fill="none" xmlns="http://www.w3.org/2000/svg">
<path fill-rule="evenodd" clip-rule="evenodd" d="M12.5 18.75C15.9518 18.75 18.75 15.9518 18.75 12.5C18.75 9.04822 15.9518 6.25 12.5 6.25C9.04822 6.25 6.25 9.04822 6.25 12.5C6.25 15.9518 9.04822 18.75 12.5 18.75ZM12.5 16.6667C14.8011 16.6667 16.6667 14.8011 16.6667 12.5C16.6667 10.1988 14.8011 8.33333 12.5 8.33333C10.1988 8.33333 8.33333 10.1988 8.33333 12.5C8.33333 14.8011 10.1988 16.6667 12.5 16.6667Z" fill="#CB5977"/>
<path d="M18.75 5.20801C18.1747 5.20801 17.7083 5.67438 17.7083 6.24967C17.7083 6.82497 18.1747 7.29134 18.75 7.29134C19.3253 7.29134 19.7917 6.82497 19.7917 6.24967C19.7917 5.67438 19.3253 5.20801 18.75 5.20801Z" fill="#CB5977"/>
<path fill-rule="evenodd" clip-rule="evenodd" d="M1.72286 4.45456C1.04166 5.7915 1.04166 7.54167 1.04166 11.042V13.9587C1.04166 17.459 1.04166 19.2092 1.72286 20.5461C2.32207 21.7221 3.2782 22.6782 4.45422 23.2774C5.79117 23.9587 7.54133 23.9587 11.0417 23.9587H13.9583C17.4586 23.9587 19.2088 23.9587 20.5457 23.2774C21.7218 22.6782 22.6779 21.7221 23.2771 20.5461C23.9583 19.2092 23.9583 17.459 23.9583 13.9587V11.042C23.9583 7.54167 23.9583 5.7915 23.2771 4.45456C22.6779 3.27853 21.7218 2.32241 20.5457 1.7232C19.2088 1.04199 17.4586 1.04199 13.9583 1.04199H11.0417C7.54133 1.04199 5.79117 1.04199 4.45422 1.7232C3.2782 2.32241 2.32207 3.27853 1.72286 4.45456ZM13.9583 3.12533H11.0417C9.25712 3.12533 8.044 3.12695 7.10632 3.20355C6.19295 3.27818 5.72587 3.41344 5.40003 3.57946C4.61602 3.97894 3.9786 4.61636 3.57913 5.40037C3.4131 5.7262 3.27784 6.19328 3.20322 7.10666C3.12661 8.04434 3.12499 9.25745 3.12499 11.042V13.9587C3.12499 15.7432 3.12661 16.9563 3.20322 17.894C3.27784 18.8074 3.4131 19.2745 3.57913 19.6003C3.9786 20.3843 4.61602 21.0217 5.40003 21.4212C5.72587 21.5872 6.19295 21.7225 7.10632 21.7971C8.044 21.8737 9.25712 21.8753 11.0417 21.8753H13.9583C15.7429 21.8753 16.9559 21.8737 17.8936 21.7971C18.8071 21.7225 19.2742 21.5872 19.6 21.4212C20.3839 21.0217 21.0213 20.3843 21.4208 19.6003C21.5869 19.2745 21.7222 18.8074 21.7968 17.894C21.8733 16.9563 21.875 15.7432 21.875 13.9587V11.042C21.875 9.25745 21.8733 8.04434 21.7968 7.10666C21.7222 6.19328 21.5869 5.7262 21.4208 5.40037C21.0213 4.61636 20.3839 3.97894 19.6 3.57946C19.2742 3.41344 18.8071 3.27818 17.8936 3.20355C16.9559 3.12695 15.7429 3.12533 13.9583 3.12533Z" fill="#CB5977"/>
</svg>
