<svg width="28" height="28" viewBox="0 0 28 28" fill="none" xmlns="http://www.w3.org/2000/svg">
<path d="M10.5 25.667H17.5" stroke="#E2E2E2" stroke-width="1.4" stroke-linecap="round"/>
<path d="M14 25.6667V17.5" stroke="#E2E2E2" stroke-width="1.4" stroke-linecap="round"/>
<path d="M5.78853 8.68494C6.49893 5.94862 6.85412 4.58047 7.77125 3.67635C8.03713 3.41425 8.33349 3.185 8.65399 2.99353C9.75956 2.33301 11.1731 2.33301 14.0002 2.33301C16.8271 2.33301 18.2406 2.33301 19.3462 2.99353C19.6667 3.185 19.9631 3.41425 20.229 3.67635C21.1461 4.58047 21.5012 5.94862 22.2116 8.68494L22.31 9.06348C23.2757 12.7835 23.7586 14.6436 22.8815 15.9502C22.794 16.0807 22.6979 16.2049 22.5937 16.3224C21.5493 17.4997 19.6276 17.4997 15.7842 17.4997H12.216C8.37262 17.4997 6.45094 17.4997 5.40652 16.3224C5.30235 16.2049 5.20619 16.0807 5.11871 15.9502C4.2416 14.6436 4.72448 12.7835 5.69026 9.06347L5.78853 8.68494Z" stroke="#E2E2E2" stroke-width="1.4"/>
<path d="M20.4165 17.5V19.8333" stroke="#E2E2E2" stroke-width="1.4" stroke-linecap="round"/>
</svg>
