<svg width="28" height="28" viewBox="0 0 28 28" fill="none" xmlns="http://www.w3.org/2000/svg">
<path d="M14.0002 25.6663C20.4435 25.6663 25.6668 20.443 25.6668 13.9997C25.6668 7.55635 20.4435 2.33301 14.0002 2.33301C7.55684 2.33301 2.3335 7.55635 2.3335 13.9997C2.3335 20.443 7.55684 25.6663 14.0002 25.6663Z" stroke="#E2E2E2" stroke-width="1.4"/>
<path d="M7 5.49594C7.91028 6.32488 9.78547 8.59068 10.0039 11.0223C10.2081 13.2951 11.7083 15.142 14 15.167C14.8807 15.1766 15.7714 14.5404 15.7691 13.6597C15.7684 13.3872 15.7235 13.1088 15.6532 12.8527C15.5553 12.4963 15.5466 12.0864 15.75 11.667C16.4615 10.2 17.861 9.80589 18.9699 9.00916C19.4616 8.6558 19.9102 8.28304 20.1081 7.98279C20.6543 7.15384 21.2004 5.49594 20.9273 4.66699" stroke="#E2E2E2" stroke-width="1.4"/>
<path d="M25.6665 15.167C25.2822 16.2532 25.0102 19.1045 20.6711 19.1498C20.6711 19.1498 16.8285 19.1498 15.6757 21.3222C14.7535 23.0601 15.2914 24.9428 15.6757 25.667" stroke="#E2E2E2" stroke-width="1.4"/>
</svg>
