<svg width="25" height="25" viewBox="0 0 25 25" fill="none" xmlns="http://www.w3.org/2000/svg">
<path d="M14.893 12.3048C14.5023 12.1579 14.5023 11.597 14.4781 11.2063C14.3805 9.81494 14.8687 7.69072 14.2828 6.7876C13.868 6.2501 11.8656 6.29932 10.6453 6.37275C10.3031 6.42197 9.88827 6.49463 9.5953 6.6415C9.30233 6.78838 9.00937 7.03213 9.00937 7.25166C9.00937 7.56885 9.74218 7.52041 10.0101 7.93525C10.3031 8.3751 10.3031 9.32666 10.3031 10.1079C10.3031 11.011 10.1562 12.2079 9.79062 12.2563C9.2289 12.2806 8.91171 11.7188 8.61874 11.304C8.0328 10.4985 7.44687 9.49697 7.00702 8.52041C6.78749 8.00791 6.66483 7.44619 6.34765 7.22666C5.85937 6.88447 4.98046 6.86025 4.12577 6.88447C3.34452 6.90869 2.22109 6.81104 2.00155 7.2751C1.83046 7.7876 2.19687 8.27588 2.39218 8.6915C3.39296 10.8642 4.46718 12.7688 5.78593 14.5751C7.00702 16.2595 8.1539 17.6024 10.4 18.3103C11.0351 18.5056 13.818 19.0673 14.3797 18.3103C14.575 18.0173 14.5266 17.3579 14.6242 16.8696C14.7219 16.3813 14.8437 15.8931 15.3078 15.8688C15.6984 15.8446 15.918 16.186 16.1625 16.4306C16.4312 16.6993 16.6508 16.9188 16.8461 17.1634C17.3101 17.6274 17.7984 18.2618 18.3844 18.5063C19.1898 18.8485 20.4351 18.7509 21.607 18.7017C22.5594 18.6774 23.243 18.4821 23.3164 17.9204C23.3656 17.4806 22.8766 16.8462 22.5836 16.4798C21.8508 15.5767 21.5094 15.3079 20.6789 14.4774C20.3125 14.111 19.8484 13.7204 19.8484 13.2813C19.8242 13.0126 20.0437 12.7688 20.2391 12.5001C21.0937 11.2306 21.9484 10.3274 22.7297 9.00869C22.9492 8.61807 23.4625 7.71494 23.2672 7.2751C23.0476 6.78682 21.8266 6.93291 21.0695 6.93291C20.093 6.93291 18.8234 6.85947 18.5789 7.05478C18.1148 7.37197 17.9195 7.88525 17.7 8.37354C17.2117 9.49697 16.5523 10.6438 15.8687 11.4985C15.6242 11.7915 15.1609 12.4017 14.8922 12.304L14.893 12.3048Z" fill="#CB5977"/>
</svg>
