<svg width="20" height="26" viewBox="0 0 20 26" fill="none" xmlns="http://www.w3.org/2000/svg">
<path d="M0.140625 0.300781H8.13867C11.5605 0.300781 14.1504 0.78125 15.9082 1.74219C17.666 2.70313 18.5449 4.39063 18.5449 6.80469C18.5449 7.77734 18.3867 8.65625 18.0703 9.44141C17.7656 10.2266 17.3203 10.8711 16.7344 11.375C16.1484 11.8789 15.4336 12.207 14.5898 12.3594V12.5352C15.4453 12.7109 16.2188 13.0156 16.9102 13.4492C17.6016 13.8711 18.1523 14.4922 18.5625 15.3125C18.9844 16.1211 19.1953 17.1992 19.1953 18.5469C19.1953 20.1055 18.8145 21.4414 18.0527 22.5547C17.291 23.668 16.2012 24.5234 14.7832 25.1211C13.377 25.707 11.7012 26 9.75586 26H0.140625V0.300781ZM5.58984 10.4785H8.75391C10.3359 10.4785 11.4316 10.2324 12.041 9.74023C12.6504 9.23633 12.9551 8.49805 12.9551 7.52539C12.9551 6.54102 12.5918 5.83789 11.8652 5.41602C11.1504 4.98242 10.0137 4.76562 8.45508 4.76562H5.58984V10.4785ZM5.58984 14.8027V21.5H9.14062C10.7812 21.5 11.9238 21.1836 12.5684 20.5508C13.2129 19.918 13.5352 19.0684 13.5352 18.002C13.5352 17.3691 13.3945 16.8125 13.1133 16.332C12.832 15.8516 12.3574 15.4766 11.6895 15.207C11.0332 14.9375 10.125 14.8027 8.96484 14.8027H5.58984Z" fill="#CB5977"/>
</svg>
