<svg width="65" height="65" viewBox="0 0 65 65" fill="none" xmlns="http://www.w3.org/2000/svg">
<g clip-path="url(#clip0_1173_38)">
<path d="M21.6665 41.7087V23.292C21.6665 22.3945 22.394 21.667 23.2915 21.667H41.7082C42.6057 21.667 43.3332 22.3945 43.3332 23.292V41.7087C43.3332 42.6062 42.6057 43.3337 41.7082 43.3337H23.2915C22.394 43.3337 21.6665 42.6062 21.6665 41.7087Z" stroke="#E0E0E0" stroke-width="2" stroke-linecap="round" stroke-linejoin="round"/>
<path d="M54.1668 12.458V52.5413C54.1668 53.4389 53.4394 54.1663 52.5418 54.1663H12.4585C11.561 54.1663 10.8335 53.4389 10.8335 52.5413V12.458C10.8335 11.5605 11.561 10.833 12.4585 10.833H52.5418C53.4394 10.833 54.1668 11.5605 54.1668 12.458Z" stroke="#E0E0E0" stroke-width="2" stroke-linecap="round" stroke-linejoin="round"/>
<path d="M46.0415 10.8337V5.41699" stroke="#E0E0E0" stroke-width="2" stroke-linecap="round" stroke-linejoin="round"/>
<path d="M32.5 10.8337V5.41699" stroke="#E0E0E0" stroke-width="2" stroke-linecap="round" stroke-linejoin="round"/>
<path d="M18.9585 10.8337V5.41699" stroke="#E0E0E0" stroke-width="2" stroke-linecap="round" stroke-linejoin="round"/>
<path d="M18.9585 54.167V59.5837" stroke="#E0E0E0" stroke-width="2" stroke-linecap="round" stroke-linejoin="round"/>
<path d="M32.5 54.167V59.5837" stroke="#E0E0E0" stroke-width="2" stroke-linecap="round" stroke-linejoin="round"/>
<path d="M46.0415 54.167V59.5837" stroke="#E0E0E0" stroke-width="2" stroke-linecap="round" stroke-linejoin="round"/>
<path d="M54.1665 46.042H59.5832" stroke="#E0E0E0" stroke-width="2" stroke-linecap="round" stroke-linejoin="round"/>
<path d="M54.1665 32.5H59.5832" stroke="#E0E0E0" stroke-width="2" stroke-linecap="round" stroke-linejoin="round"/>
<path d="M54.1665 18.958H59.5832" stroke="#E0E0E0" stroke-width="2" stroke-linecap="round" stroke-linejoin="round"/>
<path d="M10.8332 46.042H5.4165" stroke="#E0E0E0" stroke-width="2" stroke-linecap="round" stroke-linejoin="round"/>
<path d="M10.8332 32.5H5.4165" stroke="#E0E0E0" stroke-width="2" stroke-linecap="round" stroke-linejoin="round"/>
<path d="M10.8332 18.958H5.4165" stroke="#E0E0E0" stroke-width="2" stroke-linecap="round" stroke-linejoin="round"/>
</g>
<defs>
<clipPath id="clip0_1173_38">
<rect width="65" height="65" fill="white"/>
</clipPath>
</defs>
</svg>
