<svg width="65" height="65" viewBox="0 0 65 65" fill="none" xmlns="http://www.w3.org/2000/svg">
<path d="M55.5469 25.8375C55.3159 26.4857 54.957 27.0809 54.4917 27.5879C54.0267 28.0949 53.4645 28.5036 52.8386 28.7896C49.5073 30.2808 46.6771 32.7018 44.6881 35.7622C42.6994 38.8226 41.6361 42.3919 41.6261 46.0417C41.6301 47.3149 41.7572 48.5845 42.0052 49.8333C42.1707 50.5965 42.1816 51.3852 42.0375 52.1527C41.8931 52.92 41.5968 53.651 41.1657 54.3021C40.8009 54.8719 40.3209 55.3591 39.7565 55.7324C39.1921 56.1053 38.5556 56.3564 37.8886 56.4687C36.4418 56.7407 34.9731 56.8766 33.5011 56.875C30.2354 56.8766 27.0025 56.2218 23.9946 54.9496C20.9868 53.6775 18.2652 51.8142 15.9916 49.4696C13.718 47.1253 11.9386 44.3481 10.7592 41.3026C9.57984 38.2571 9.02447 35.0057 9.12606 31.7417C9.33625 25.6555 11.8046 19.8655 16.0503 15.4997C20.2959 11.1339 26.0148 8.50492 32.0927 8.125H33.474C38.0124 8.12614 42.4605 9.39437 46.3172 11.7869C50.1739 14.1793 53.286 17.6011 55.3032 21.6667C55.9239 22.9531 56.0117 24.4327 55.5469 25.7833V25.8375Z" stroke="#E0E0E0" stroke-width="2"/>
<path d="M21.6665 43.3601L21.6936 43.3301" stroke="#E0E0E0" stroke-width="4" stroke-linecap="round" stroke-linejoin="round"/>
<path d="M16.25 32.5271L16.2771 32.4971" stroke="#E0E0E0" stroke-width="4" stroke-linecap="round" stroke-linejoin="round"/>
<path d="M21.6665 21.6942L21.6936 21.6641" stroke="#E0E0E0" stroke-width="4" stroke-linecap="round" stroke-linejoin="round"/>
<path d="M32.5 16.2772L32.5271 16.2471" stroke="#E0E0E0" stroke-width="4" stroke-linecap="round" stroke-linejoin="round"/>
<path d="M43.3335 21.6942L43.3606 21.6641" stroke="#E0E0E0" stroke-width="4" stroke-linecap="round" stroke-linejoin="round"/>
</svg>
