<svg width="65" height="65" viewBox="0 0 65 65" fill="none" xmlns="http://www.w3.org/2000/svg">
<path d="M37.9167 18.9583C40.9083 18.9583 43.3333 16.5332 43.3333 13.5417C43.3333 10.5501 40.9083 8.125 37.9167 8.125C34.925 8.125 32.5 10.5501 32.5 13.5417C32.5 16.5332 34.925 18.9583 37.9167 18.9583Z" stroke="#E0E0E0" stroke-width="2" stroke-linecap="round" stroke-linejoin="round"/>
<path d="M48.75 56.875C53.2374 56.875 56.875 53.2374 56.875 48.75C56.875 44.2626 53.2374 40.625 48.75 40.625C44.2626 40.625 40.625 44.2626 40.625 48.75C40.625 53.2374 44.2626 56.875 48.75 56.875Z" stroke="#E0E0E0" stroke-width="2" stroke-linecap="round" stroke-linejoin="round"/>
<path d="M16.25 56.875C20.7373 56.875 24.375 53.2374 24.375 48.75C24.375 44.2626 20.7373 40.625 16.25 40.625C11.7627 40.625 8.125 44.2626 8.125 48.75C8.125 53.2374 11.7627 56.875 16.25 56.875Z" stroke="#E0E0E0" stroke-width="2" stroke-linecap="round" stroke-linejoin="round"/>
<path d="M31.1458 48.7505L35.2083 37.9172L21.9854 32.5005L30.1109 23.0215L38.2359 29.7924H47.7151" stroke="#E0E0E0" stroke-width="2" stroke-linecap="round" stroke-linejoin="round"/>
</svg>
