<svg width="65" height="65" viewBox="0 0 65 65" fill="none" xmlns="http://www.w3.org/2000/svg">
<path d="M11.9885 55.252L7.42627 4.0625H57.5738L53.0055 55.2439L32.4695 60.9375L11.9885 55.252Z" fill="#1572B6"/>
<path d="M32.5 56.5867L49.0953 51.9859L52.9994 8.24902H32.5V56.5867Z" fill="#33A9DC"/>
<path d="M32.5 26.7944H40.8078L41.3806 20.3655H32.5V14.0869H32.5223H48.2422L48.0919 15.7708L46.5502 33.073H32.5V26.7944Z" fill="white"/>
<path d="M32.5386 43.0989L32.5101 43.107L25.5186 41.218L25.0717 36.2109H21.6734H18.7687L19.6483 46.0686L32.5081 49.6395L32.5386 49.6314V43.0989Z" fill="#EBEBEB"/>
<path d="M40.2736 32.8066L39.518 41.214L32.5162 43.103V49.6356L45.3862 46.0687L45.4817 45.0084L46.5725 32.8066H40.2736Z" fill="white"/>
<path d="M32.5223 14.0869V17.9869V20.3493V20.3655H17.3773H17.357L17.2311 18.9538L16.9447 15.7708L16.7944 14.0869H32.5223Z" fill="#EBEBEB"/>
<path d="M32.5 26.7939V30.6939V33.0563V33.0725H25.6161H25.5958L25.4698 31.6608L25.1855 28.4779L25.0352 26.7939H32.5Z" fill="#EBEBEB"/>
</svg>
