<svg width="65" height="65" viewBox="0 0 65 65" fill="none" xmlns="http://www.w3.org/2000/svg">
<g clip-path="url(#clip0_1150_240)">
<path d="M63.7742 29.6038L35.3942 1.22597C33.761 -0.408658 31.1101 -0.408658 29.4747 1.22597L23.5816 7.11907L31.0573 14.5947C32.7946 14.0078 34.7866 14.4015 36.1716 15.7865C37.563 17.18 37.9539 19.1891 37.3526 20.9321L44.5573 28.1368C46.3003 27.5363 48.3115 27.925 49.7037 29.3193C51.6493 31.2641 51.6493 34.4164 49.7037 36.3627C47.7574 38.309 44.6051 38.309 42.6581 36.3627C41.1946 34.8978 40.833 32.7483 41.574 30.9453L34.855 24.2264L34.8543 41.9078C35.3286 42.1431 35.7765 42.4562 36.1716 42.8499C38.1172 44.7948 38.1172 47.9471 36.1716 49.8948C34.2253 51.8404 31.0716 51.8404 29.1281 49.8948C27.1825 47.9471 27.1825 44.7948 29.1281 42.8499C29.6088 42.3699 30.1651 42.0069 30.7585 41.763V23.9168C30.1651 23.6744 29.6095 23.3135 29.1281 22.8299C27.654 21.3579 27.2995 19.1948 28.0548 17.3847L20.6861 10.0146L1.22669 29.4726C-0.408653 31.1087 -0.408653 33.7596 1.22669 35.3942L29.6067 63.7728C31.2406 65.4074 33.8908 65.4074 35.5269 63.7728L63.7742 35.5262C65.4088 33.8908 65.4088 31.2385 63.7742 29.6038Z" fill="#DE4C36"/>
</g>
<defs>
<clipPath id="clip0_1150_240">
<rect width="65" height="65" fill="white"/>
</clipPath>
</defs>
</svg>
