<svg width="65" height="65" viewBox="0 0 65 65" fill="none" xmlns="http://www.w3.org/2000/svg">
<path d="M60.9375 4.0625H4.0625V60.9375H60.9375V4.0625Z" fill="#FFCA28"/>
<path d="M38.5938 51.3656L42.7812 48.5946C43.1094 49.6257 45.1876 52.0743 47.8126 52.0743C50.4376 52.0743 51.6563 50.6407 51.6563 49.6901C51.6563 47.0998 48.9759 46.1866 47.6885 45.748C47.4784 45.6765 47.3058 45.6176 47.1876 45.5662C47.1268 45.5398 47.0352 45.5047 46.9176 45.4598C45.4858 44.9128 40.2031 42.8945 40.2031 37.0441C40.2031 30.6004 46.4218 29.8594 47.8282 29.8594C48.7482 29.8594 53.1718 29.9721 55.3749 34.1122L51.3124 36.9476C50.4219 35.1433 48.9422 34.5473 48.0313 34.5473C45.7813 34.5473 45.3125 36.1967 45.3125 36.9476C45.3125 39.0544 47.7571 39.9988 49.8211 40.796C50.3612 41.0046 50.8751 41.2031 51.3124 41.4099C53.5624 42.473 56.875 44.213 56.875 49.6901C56.875 52.4335 54.574 56.875 48.7813 56.875C41 56.875 38.9374 52.2033 38.5938 51.3656Z" fill="#3E3E3E"/>
<path d="M18.2812 51.9157L22.6458 49.1463C22.9877 50.1767 24.3167 52.0768 26.2448 52.0768C28.173 52.0768 29.16 50.0963 29.16 49.1463V30.4688H34.5276V49.1463C34.6145 51.7225 33.1858 56.875 26.8799 56.875C21.0823 56.875 18.6721 53.4294 18.2812 51.9157Z" fill="#3E3E3E"/>
</svg>
