<svg width="65" height="65" viewBox="0 0 65 65" fill="none" xmlns="http://www.w3.org/2000/svg">
<g clip-path="url(#clip0_1150_222)">
<path d="M51.03 65H13.97C6.25375 65 0 58.7463 0 51.03V13.97C0 6.25375 6.25375 0 13.97 0H51.0312C58.7463 0 65 6.25375 65 13.97V51.0312C65 58.7463 58.7463 65 51.03 65Z" fill="#393687"/>
<path d="M15.2 48.75H11.6V13.75H23.65C26.9162 13.75 29.3412 14.7662 30.925 16.8C32.5075 18.8325 33.3 21.5 33.3 24.7988C33.3 25.9663 33.2662 26.9738 33.2 27.8238C33.1325 28.675 32.925 29.7413 32.575 31.025C32.225 32.3075 31.75 33.3575 31.15 34.175C30.55 34.9925 29.6337 35.7087 28.4 36.325C27.1662 36.9425 25.7 37.25 24 37.25H15.2V48.75ZM15.2 33.75H23.55C24.75 33.75 25.7662 33.5163 26.6 33.05C27.4325 32.5825 28.0412 32.0837 28.425 31.55C28.8075 31.0163 29.1075 30.25 29.325 29.25C29.5412 28.2487 29.6587 27.5 29.675 26.9988C29.6912 26.5 29.7 25.7825 29.7 24.8487C29.7 19.7825 27.5825 17.2487 23.35 17.2487H15.2V33.75Z" fill="#89D3FF"/>
<path d="M36.85 42.4003L40.35 42.2503C40.4825 43.4841 41.1 44.4428 42.2 45.1253C43.3 45.8091 44.5662 46.1503 46 46.1503C47.4337 46.1503 48.675 45.8253 49.725 45.1753C50.775 44.5253 51.3 43.5928 51.3 42.3766C51.3 41.1603 50.85 40.1928 49.95 39.4766C49.05 38.7603 47.95 38.1941 46.65 37.7766C45.35 37.3603 44.0425 36.9191 42.725 36.4516C41.4075 35.9853 40.25 35.2516 39.25 34.2516C38.0162 33.0841 37.4 31.6603 37.4 29.9766C37.4 28.2928 38.075 26.7253 39.425 25.2753C40.775 23.8253 42.9662 23.1016 46 23.1016C47.0675 23.1016 48.0662 23.2266 49 23.4766C49.9325 23.7266 50.6 23.9691 51 24.2016L51.6 24.5503L50.45 27.7016C49.3825 26.8691 47.9825 26.4516 46.25 26.4516C44.5162 26.4516 43.225 26.7766 42.375 27.4266C41.525 28.0766 41.1 28.9016 41.1 29.9003C41.1 31.0003 41.6325 31.8678 42.7 32.5003C43.7662 33.1341 44.9662 33.6678 46.3 34.1003C47.6325 34.5341 48.9575 35.0166 50.275 35.5503C51.5912 36.0841 52.7075 36.9178 53.625 38.0503C54.5425 39.1828 55 40.6828 55 42.5503C55 44.4178 54.25 46.0428 52.75 47.4253C51.25 48.8078 49.0575 49.5003 46.175 49.5003C43.2912 49.5003 41.0325 48.8166 39.4 47.4503C37.7662 46.0841 36.9162 44.4003 36.85 42.4003Z" fill="#89D3FF"/>
</g>
<defs>
<clipPath id="clip0_1150_222">
<rect width="65" height="65" fill="white"/>
</clipPath>
</defs>
</svg>
