<svg width="65" height="65" viewBox="0 0 65 65" fill="none" xmlns="http://www.w3.org/2000/svg">
<path d="M53.443 22.299C52.7688 22.0669 52.07 21.8473 51.3506 21.6396C51.4689 21.157 51.5774 20.6807 51.6739 20.2125C53.2578 12.5239 52.2222 6.32995 48.6858 4.29063C45.2949 2.3352 39.7494 4.37405 34.1486 9.24823C33.61 9.71692 33.0699 10.2132 32.5301 10.7332C32.1704 10.3891 31.8112 10.0566 31.453 9.73856C25.5833 4.52678 19.6997 2.33046 16.1669 4.37567C12.7792 6.33677 11.776 12.1597 13.2017 19.4462C13.3394 20.15 13.5004 20.8687 13.6823 21.5995C12.8497 21.8358 12.0458 22.0878 11.2766 22.3559C4.39495 24.7551 0 28.5154 0 32.4157C0 36.444 4.71798 40.4844 11.8858 42.9344C12.4514 43.1277 13.0384 43.3105 13.6432 43.4841C13.4469 44.2744 13.2761 45.0489 13.1328 45.8043C11.7733 52.9643 12.835 58.6497 16.2136 60.5984C19.7034 62.6109 25.5604 60.5423 31.2635 55.557C31.7143 55.163 32.1667 54.7451 32.6199 54.307C33.2073 54.8727 33.7937 55.408 34.3771 55.9101C39.9013 60.6639 45.3573 62.5834 48.7328 60.6293C52.2192 58.611 53.3522 52.5036 51.8812 45.073C51.7689 44.5055 51.6381 43.9257 51.4913 43.3356C51.9026 43.214 52.3064 43.0885 52.7001 42.958C60.1517 40.4891 65 36.4978 65 32.4157C65 28.5013 60.4633 24.7157 53.443 22.299ZM51.8268 40.3222C51.4714 40.4399 51.1067 40.5536 50.7351 40.6639C49.9125 38.0596 48.8022 35.2904 47.4436 32.4292C48.7401 29.6363 49.8074 26.9024 50.607 24.315C51.272 24.5074 51.9173 24.7104 52.5392 24.9245C58.5542 26.9952 62.2232 30.0567 62.2232 32.4157C62.2232 34.9285 58.2608 38.1904 51.8268 40.3222ZM49.1572 45.6122C49.8077 48.898 49.9006 51.8687 49.4697 54.191C49.0826 56.2777 48.304 57.669 47.3414 58.2262C45.293 59.4119 40.9124 57.8707 36.188 53.8052C35.6464 53.3392 35.1009 52.8416 34.5537 52.3149C36.3852 50.3118 38.2157 47.9831 40.0022 45.3969C43.1444 45.1181 46.1132 44.6622 48.8054 44.0399C48.938 44.5748 49.0557 45.0993 49.1572 45.6122ZM22.16 58.0213C20.1586 58.7281 18.5646 58.7484 17.6011 58.1928C15.5508 57.0102 14.6984 52.4454 15.8611 46.3222C15.9942 45.6209 16.1528 44.9006 16.3354 44.1643C18.9981 44.753 21.9451 45.1767 25.0949 45.4321C26.8935 47.9628 28.7768 50.2889 30.6747 52.3257C30.2601 52.726 29.847 53.1071 29.4363 53.4662C26.9144 55.6706 24.3872 57.2347 22.16 58.0213ZM12.7838 40.3068C9.61437 39.2236 6.9969 37.8156 5.20276 36.2792C3.59061 34.8986 2.77666 33.5279 2.77666 32.4157C2.77666 30.0488 6.30537 27.0299 12.1906 24.978C12.9047 24.729 13.6523 24.4944 14.428 24.274C15.2414 26.9198 16.3084 29.686 17.596 32.4833C16.2917 35.3221 15.2096 38.1324 14.3882 40.8092C13.8352 40.6502 13.2994 40.4829 12.7838 40.3068ZM15.9268 18.9129C14.7052 12.67 15.5165 7.96061 17.558 6.77886C19.7326 5.51994 24.5412 7.31489 29.6093 11.815C29.9332 12.1026 30.2584 12.4037 30.5846 12.7151C28.696 14.743 26.8299 17.0517 25.0474 19.5674C21.9904 19.8508 19.0641 20.3059 16.3736 20.9154C16.2045 20.235 16.0546 19.5665 15.9268 18.9129ZM43.9649 25.8362C43.3217 24.7253 42.6614 23.6406 41.9883 22.5856C44.0622 22.8477 46.0492 23.1958 47.9152 23.6216C47.355 25.4171 46.6567 27.2943 45.8348 29.2187C45.2452 28.0993 44.6216 26.9707 43.9649 25.8362ZM32.531 14.6996C33.8118 16.0872 35.0944 17.6364 36.356 19.3173C35.0847 19.2572 33.7977 19.226 32.5 19.226C31.2146 19.226 29.937 19.2565 28.6736 19.3156C29.9365 17.6503 31.2302 16.1032 32.531 14.6996ZM21.0239 25.8554C20.3814 26.9695 19.7694 28.092 19.189 29.2166C18.3804 27.2989 17.6887 25.4131 17.1236 23.5923C18.9781 23.1772 20.9558 22.8379 23.0165 22.5807C22.3339 23.6455 21.6681 24.7384 21.0239 25.8554ZM23.0758 42.4488C20.9467 42.2113 18.9394 41.8894 17.0853 41.4858C17.6594 39.6324 18.3664 37.7064 19.1922 35.7474C19.774 36.8712 20.3885 37.9941 21.0349 39.1106C21.6934 40.2481 22.3756 41.3623 23.0758 42.4488ZM32.6078 50.3275C31.2918 48.9076 29.979 47.3368 28.697 45.6473C29.9415 45.6961 31.2104 45.7211 32.5 45.7211C33.8249 45.7211 35.1346 45.6912 36.4237 45.6339C35.158 47.3538 33.8799 48.927 32.6078 50.3275ZM45.8613 35.6475C46.7301 37.6277 47.4624 39.5437 48.0439 41.3655C46.1593 41.7954 44.1245 42.1417 41.9806 42.399C42.6554 41.3297 43.3215 40.2264 43.976 39.0915C44.6381 37.9433 45.2668 36.7934 45.8613 35.6475ZM41.5707 37.7043C40.5546 39.4661 39.5115 41.1479 38.4525 42.7354C36.5237 42.8733 34.531 42.9443 32.5 42.9443C30.4772 42.9443 28.5097 42.8815 26.615 42.7585C25.5133 41.1502 24.4475 39.4634 23.4379 37.7195C22.4309 35.9803 21.5044 34.2264 20.6647 32.4823C21.5042 30.7342 22.4285 28.9784 23.4297 27.2423L23.4294 27.2427C24.4332 25.502 25.4897 23.8234 26.5812 22.2252C28.5143 22.079 30.4966 22.0028 32.4999 22.0028C34.5122 22.0028 36.4972 22.0796 38.4297 22.227C39.5045 23.8136 40.5538 25.4867 41.5616 27.2276C42.5807 28.9881 43.517 30.7323 44.3637 32.4429C43.5195 34.1829 42.5854 35.9446 41.5707 37.7043ZM47.2988 6.69625C49.4755 7.95147 50.3219 13.0138 48.9544 19.652C48.8671 20.0756 48.7689 20.507 48.6622 20.9443C45.9655 20.322 43.0372 19.859 39.9713 19.5714C38.1852 17.0279 36.3344 14.7157 34.4766 12.7139C34.9761 12.2334 35.4749 11.7752 35.9716 11.3428C40.7703 7.16668 45.2554 5.51785 47.2988 6.69625ZM32.5 26.6114C35.7056 26.6114 38.3043 29.21 38.3043 32.4157C38.3043 35.6213 35.7056 38.22 32.5 38.22C29.2944 38.22 26.6957 35.6213 26.6957 32.4157C26.6957 29.21 29.2944 26.6114 32.5 26.6114Z" fill="#00D8FF"/>
</svg>
