<svg width="73" height="65" viewBox="0 0 73 65" fill="none" xmlns="http://www.w3.org/2000/svg">
<g clip-path="url(#clip0_1149_169)">
<path d="M44.6465 40.2681L43.2588 42.6779C42.8407 43.4038 42.0668 43.8512 41.2291 43.8512H30.5982C29.7605 43.8512 28.9866 43.4038 28.5685 42.6779L27.1806 40.2681H44.6465ZM48.5316 33.5222L46.0846 37.771H25.7425L23.2957 33.5222H48.5316ZM46.1745 26.9255L48.5355 31.0252H23.2918L25.6527 26.9255H46.1745ZM41.2291 20.6895C42.0668 20.6895 42.8407 21.1368 43.2588 21.8628L44.7364 24.4284H27.0909L28.5685 21.8628C28.9866 21.1368 29.7605 20.6895 30.5982 20.6895H41.2291Z" fill="#00435B"/>
<path d="M15.126 19.5712C13.9484 13.8608 13.6956 9.48103 14.4569 6.30067C14.9096 4.40918 15.7373 2.86613 16.9959 1.75285C18.3246 0.577507 20.0046 0.000767004 21.8922 0.000767004C25.0061 0.000767004 28.2797 1.42078 31.7781 4.11844C33.205 5.21877 34.686 6.54503 36.224 8.09799C36.3465 7.94039 36.4848 7.79174 36.639 7.65435C40.9873 3.7794 44.6482 1.37184 47.7794 0.443561C49.6412 -0.108394 51.3892 -0.16098 52.981 0.374713C54.6613 0.940171 56.0001 2.10905 56.9447 3.74629C58.5036 6.44831 58.9147 9.99879 58.3335 14.3827C58.0966 16.1697 57.6916 18.1161 57.1194 20.2252C57.3353 20.2513 57.5517 20.2991 57.7659 20.3701C63.283 22.1984 67.1896 24.1645 69.5548 26.4114C70.962 27.7482 71.881 29.2365 72.2132 30.884C72.5638 32.6229 72.2219 34.367 71.2784 36.003C69.7224 38.7012 66.8614 40.8291 62.7856 42.5146C61.149 43.1914 59.2973 43.8044 57.2284 44.3556C57.3228 44.5688 57.396 44.7951 57.445 45.0326C58.6226 50.743 58.8754 55.1228 58.1141 58.3032C57.6614 60.1946 56.8337 61.7377 55.5751 62.851C54.2464 64.0263 52.5664 64.6031 50.6788 64.6031C47.5648 64.6031 44.2913 63.183 40.7929 60.4854C39.3508 59.3734 37.8535 58.0305 36.2978 56.4562C36.1378 56.7066 35.9412 56.9393 35.7088 57.1464C31.3605 61.0214 27.6996 63.4289 24.5684 64.3572C22.7066 64.9091 20.9586 64.9617 19.3668 64.426C17.6865 63.8606 16.3477 62.6917 15.4031 61.0545C13.8442 58.3524 13.4331 54.802 14.0143 50.418C14.2598 48.5665 14.6857 46.5437 15.2911 44.3462C15.0545 44.3222 14.8169 44.2722 14.5819 44.1943C9.06483 42.366 5.15818 40.4 2.793 38.1531C1.38578 36.8162 0.466844 35.3279 0.134657 33.6805C-0.215968 31.9416 0.125918 30.1974 1.0694 28.5614C2.62538 25.8633 5.48639 23.7353 9.56226 22.0498C11.2476 21.3528 13.1611 20.7236 15.305 20.1597C15.2286 19.9727 15.1683 19.7761 15.126 19.5712Z" fill="#002B3B"/>
<path d="M53.5959 45.5943C54.1445 45.4971 54.6701 45.8488 54.7926 46.3884L54.7993 46.4203L54.8578 46.7239C56.754 56.6934 55.4183 61.6782 50.8505 61.6782C46.3813 61.6782 40.6922 57.4247 33.783 48.9177C33.6304 48.7298 33.548 48.4945 33.55 48.2523C33.5551 47.6883 34.0077 47.2329 34.5677 47.2207L34.6002 47.2205L34.964 47.2231C37.8714 47.2388 40.6979 47.1375 43.4433 46.919C46.6842 46.661 50.0684 46.2195 53.5959 45.5943ZM22.226 38.0584L22.2435 38.088L22.4261 38.4066C23.8891 40.9501 25.4134 43.3642 26.9989 45.6489C28.8661 48.3395 30.9659 51.0633 33.2983 53.8204C33.6591 54.2469 33.6179 54.88 33.2108 55.2565L33.1844 55.2802L32.9497 55.4821C25.2328 62.0943 20.2171 63.4143 17.9026 59.4421C15.6371 55.554 16.4585 48.4844 20.3668 38.2331C20.4526 38.0079 20.614 37.8194 20.8234 37.6999C21.3127 37.4206 21.9331 37.5819 22.226 38.0584ZM57.5118 23.3475L57.5434 23.3578L57.8339 23.4581C67.3592 26.7716 70.978 30.413 68.6906 34.3822C66.4534 38.2643 59.9495 41.0907 49.179 42.8616C48.9388 42.9011 48.6923 42.8552 48.4825 42.7318C47.9869 42.4405 47.8213 41.8025 48.1127 41.3069C49.6553 38.6828 51.0447 36.0718 52.2808 33.4739C53.6827 30.5276 54.9983 27.3652 56.2276 23.9866C56.414 23.4744 56.9615 23.1961 57.4801 23.3383L57.5118 23.3475ZM23.8653 21.6793C24.3609 21.9706 24.5265 22.6086 24.2351 23.1042C22.6925 25.7283 21.3031 28.3393 20.067 30.9372C18.6651 33.8835 17.3495 37.0459 16.1202 40.4245C15.93 40.9472 15.3638 41.2262 14.836 41.0635L14.8044 41.0533L14.5139 40.9529C4.98866 37.6395 1.36976 33.9981 3.65723 30.0289C5.89445 26.1468 12.3983 23.3204 23.1688 21.5495C23.409 21.51 23.6555 21.5559 23.8653 21.6793ZM54.4452 5.35932C56.7107 9.24743 55.8893 16.3171 51.9811 26.5683C51.8952 26.7936 51.7338 26.9821 51.5244 27.1016C51.0351 27.3809 50.4147 27.2196 50.1218 26.7431L50.1043 26.7135L49.9217 26.3949C48.4587 23.8514 46.9344 21.4373 45.3489 19.1526C43.4817 16.462 41.3819 13.7381 39.0495 10.9811C38.6887 10.5546 38.7299 9.9215 39.137 9.54499L39.1634 9.52131L39.3981 9.31933C47.115 2.70719 52.1307 1.38718 54.4452 5.35932ZM21.8877 2.99316C26.3568 2.99316 32.046 7.24665 38.9552 15.7536C39.1078 15.9416 39.1902 16.1769 39.1881 16.419C39.1831 16.9831 38.7305 17.4384 38.1704 17.4506L38.138 17.4508L37.7742 17.4483C34.8667 17.4325 32.0403 17.5339 29.2948 17.7524C26.054 18.0103 22.6698 18.4519 19.1423 19.077C18.5937 19.1742 18.0681 18.8225 17.9456 18.283L17.9388 18.251L17.8804 17.9474C15.9841 7.97791 17.3199 2.99316 21.8877 2.99316Z" fill="#FF4154"/>
<path d="M31.4528 20.8193H40.3765C41.6815 20.8193 42.8869 21.5173 43.5364 22.6492L48.0171 30.4565C48.6617 31.5797 48.6617 32.9605 48.0171 34.0836L43.5364 41.8909C42.8869 43.0228 41.6815 43.7208 40.3765 43.7208H31.4528C30.1478 43.7208 28.9424 43.0228 28.2928 41.8909L23.8122 34.0836C23.1676 32.9605 23.1676 31.5797 23.8122 30.4565L28.2928 22.6492C28.9424 21.5173 30.1478 20.8193 31.4528 20.8193ZM39.0164 23.1758C40.3221 23.1758 41.528 23.8745 42.1774 25.0073L45.3018 30.4582C45.9451 31.5805 45.9451 32.9597 45.3018 34.0819L42.1774 39.5328C41.528 40.6657 40.3221 41.3644 39.0164 41.3644H32.8129C31.5071 41.3644 30.3012 40.6657 29.6519 39.5328L26.5274 34.0819C25.8842 32.9597 25.8842 31.5805 26.5274 30.4582L29.6519 25.0073C30.3012 23.8745 31.5071 23.1758 32.8129 23.1758H39.0164ZM37.5505 25.7531H34.2788C32.9744 25.7531 31.7695 26.4504 31.1197 27.5814L29.4686 30.455C28.8229 31.5789 28.8229 32.9613 29.4686 34.0852L31.1197 36.9588C31.7695 38.0897 32.9744 38.7871 34.2788 38.7871H37.5505C38.8549 38.7871 40.0597 38.0897 40.7096 36.9588L42.3606 34.0852C43.0064 32.9613 43.0064 31.5789 42.3606 30.455L40.7096 27.5814C40.0597 26.4504 38.8549 25.7531 37.5505 25.7531ZM36.139 28.22C37.4424 28.22 38.6465 28.9162 39.2967 30.0459L39.5308 30.4526C40.1784 31.5777 40.1784 32.9624 39.5308 34.0876L39.2967 34.4942C38.6465 35.6239 37.4424 36.3202 36.139 36.3202H35.6903C34.3869 36.3202 33.1828 35.6239 32.5326 34.4942L32.2985 34.0876C31.6509 32.9624 31.6509 31.5777 32.2985 30.4526L32.5326 30.0459C33.1828 28.9162 34.3869 28.22 35.6903 28.22H36.139ZM35.9152 30.65C35.3351 30.65 34.8001 30.9588 34.5105 31.4601C34.2209 31.9612 34.2209 32.5789 34.5105 33.0801C34.8001 33.5814 35.3351 33.8901 35.914 33.8901C36.4942 33.8901 37.0292 33.5814 37.3188 33.0801C37.6084 32.5789 37.6084 31.9612 37.3188 31.4601C37.0292 30.9588 36.4942 30.65 35.9152 30.65ZM22.7714 32.2701H25.6881H22.7714Z" fill="#FFD94C"/>
</g>
<defs>
<clipPath id="clip0_1149_169">
<rect width="72.3478" height="65" fill="white"/>
</clipPath>
</defs>
</svg>
