<svg width="65" height="65" viewBox="0 0 65 65" fill="none" xmlns="http://www.w3.org/2000/svg">
<path d="M44.2544 43.7856C46.5032 43.5567 48.2093 41.6507 48.1317 39.3634C48.0543 37.0764 46.1155 35.2466 43.7891 35.2466H43.6341C41.2299 35.3228 39.3691 37.3051 39.4467 39.6684C39.5243 40.812 39.9894 41.8031 40.6874 42.4892C38.0508 47.5974 34.0184 51.3331 27.9699 54.459C23.8599 56.5936 19.5951 57.3562 15.3301 56.8226C11.8405 56.3651 9.12642 54.8405 7.42018 52.3242C4.93886 48.5885 4.7063 44.5477 6.80008 40.5071C8.27352 37.61 10.5996 35.4751 12.0731 34.4077C11.7629 33.4167 11.2975 31.7395 11.065 30.5197C-0.179167 38.5249 0.984121 49.351 4.39615 54.459C6.95504 58.271 12.1507 60.6346 17.889 60.6346C19.4399 60.6346 20.9907 60.4818 22.5418 60.101C32.4677 58.1949 39.9896 52.4005 44.2544 43.7856ZM57.9026 34.3317C52.0091 27.5464 43.3239 23.8107 33.398 23.8107H32.1575C31.4596 22.4384 29.9861 21.5233 28.3577 21.5233H28.2025C25.7987 21.5997 23.9379 23.5818 24.0153 25.9453C24.0929 28.2325 26.0313 30.0623 28.3577 30.0623H28.5127C30.2187 29.9861 31.6922 28.9187 32.3125 27.47H33.7082C39.6019 27.47 45.185 29.1472 50.2257 32.4256C54.1027 34.9415 56.8945 38.22 58.4454 42.1844C59.7636 45.3864 59.686 48.5123 58.2902 51.1808C56.119 55.2213 52.4745 57.4323 47.6665 57.4323C44.5646 57.4323 41.6181 56.5175 40.067 55.8313C39.2141 56.5936 37.663 57.8134 36.5773 58.5761C39.912 60.1008 43.3239 60.9395 46.5808 60.9395C54.0252 60.9395 59.5311 56.8985 61.6249 52.858C63.8735 48.4359 63.7183 40.812 57.9026 34.3317ZM18.5094 45.0813C18.587 47.3685 20.5256 49.1981 22.852 49.1981H23.0072C25.4109 49.1221 27.272 47.1398 27.1944 44.7764C27.117 42.489 25.1782 40.6595 22.852 40.6595H22.697C22.5418 40.6595 22.309 40.6595 22.1542 40.7355C18.9747 35.5513 17.6565 29.9097 18.1218 23.8105C18.4318 19.236 19.9828 15.2715 22.697 11.9931C24.9456 9.17217 29.2882 7.79988 32.2351 7.72383C40.4548 7.57124 43.9441 17.6348 44.1768 21.6756C45.185 21.9044 46.891 22.4382 48.0543 22.8194C47.1236 10.4687 39.3691 4.06445 31.925 4.06445C24.9456 4.06445 18.5094 9.02007 15.9502 16.3391C12.3832 26.0977 14.7096 35.4751 19.0521 42.8705C18.6646 43.4041 18.4318 44.2426 18.5094 45.0813Z" fill="#764ABC"/>
</svg>
