<svg width="65" height="65" viewBox="0 0 65 65" fill="none" xmlns="http://www.w3.org/2000/svg">
<path fill-rule="evenodd" clip-rule="evenodd" d="M32.5 4.0625C38.1244 4.0625 43.6225 5.73033 48.299 8.85508C52.9756 11.9798 56.6205 16.4212 58.7728 21.6174C60.9252 26.8137 61.4883 32.5315 60.3911 38.0479C59.2938 43.5642 56.5854 48.6313 52.6083 52.6083C48.6313 56.5854 43.5642 59.2938 38.0479 60.3911C32.5315 61.4883 26.8137 60.9252 21.6174 58.7728C16.4212 56.6205 11.9798 52.9756 8.85508 48.299C5.73033 43.6225 4.0625 38.1244 4.0625 32.5C4.0625 24.9579 7.05858 17.7247 12.3917 12.3917C17.7247 7.05858 24.9579 4.0625 32.5 4.0625Z" fill="#CC6699"/>
<path d="M50.3384 16.2336C49.0506 11.1839 40.6758 9.53051 32.7498 12.3377C27.7861 14.0057 23.2 16.6362 19.2542 20.0788C14.8891 24.1616 14.1923 27.7163 14.4787 29.2011C15.4944 34.4418 22.6708 37.8665 25.6222 40.4075V40.4218C24.7528 40.8504 18.3828 44.078 16.8878 47.3686C15.3156 50.8461 17.1376 53.3405 18.3462 53.6757C20.1608 54.1125 22.0666 53.9704 23.7962 53.2691C25.5259 52.5678 26.9926 51.3427 27.9906 49.7655C28.8154 48.4877 29.3314 47.0354 29.4979 45.5237C29.6643 44.0119 29.4765 42.4821 28.9494 41.0555C30.371 40.6943 31.8487 40.6095 33.3023 40.8057C38.2911 41.3886 39.2701 44.5025 39.0833 45.8066C38.9954 46.2708 38.8086 46.7106 38.5355 47.0962C38.2625 47.4817 37.9096 47.804 37.5009 48.041C37.1516 48.2583 37.0439 48.3315 37.0744 48.494C37.117 48.7275 37.2775 48.7194 37.5761 48.6686C38.3258 48.4325 38.9863 47.9748 39.4708 47.3559C39.9552 46.7369 40.2408 45.9858 40.2898 45.2013C40.4097 42.1544 37.4826 38.7297 32.2989 38.8171C30.7933 38.7741 29.291 38.98 27.8525 39.4265C27.7814 39.3452 27.7083 39.264 27.6331 39.1827C24.4278 35.7641 18.5047 33.3449 18.7545 28.7482C18.8459 27.0765 19.4269 22.6768 30.1295 17.3386C38.9045 12.9654 45.9286 14.1699 47.1433 16.8369C48.878 20.6475 43.3895 27.7264 34.2773 28.7482C33.2702 28.9526 32.2299 28.9277 31.2337 28.6752C30.2376 28.4227 29.311 27.9492 28.5228 27.2897C28.0434 26.7616 27.9723 26.7393 27.7936 26.8368C27.5031 26.9972 27.688 27.4644 27.7936 27.7407C28.1425 28.3695 28.6135 28.9223 29.1789 29.3667C29.7443 29.8111 30.3928 30.1381 31.0862 30.3285C34.6689 31.107 38.4058 30.7374 41.7666 29.2722C47.2936 27.1415 51.6039 21.2 50.3384 16.2336ZM26.8491 41.9716C27.2525 43.3624 27.232 44.8419 26.7901 46.221C26.7428 46.3645 26.6906 46.5067 26.6337 46.6475C26.5769 46.7884 26.5153 46.9238 26.4489 47.0538C26.107 47.7532 25.6642 48.3986 25.1347 48.9693C23.4833 50.771 21.1737 51.4535 20.1845 50.8786C19.1161 50.2591 19.6503 47.718 21.5658 45.6929C23.0376 44.2374 24.7345 43.0289 26.5911 42.1138L26.8491 41.9716Z" fill="white"/>
</svg>
