<svg width="65" height="65" viewBox="0 0 65 65" fill="none" xmlns="http://www.w3.org/2000/svg">
<path d="M32.5 12.9492C23.8333 12.9492 18.4167 17.2826 16.25 25.9492C19.5 21.6159 23.2917 19.9909 27.625 21.0742C30.0974 21.6923 31.8646 23.486 33.8206 25.4715C37.007 28.7058 40.6949 32.4492 48.75 32.4492C57.4167 32.4492 62.8333 28.1159 65 19.4492C61.75 23.7826 57.9583 25.4076 53.625 24.3242C51.1526 23.7061 49.3854 21.9125 47.4294 19.927C44.243 16.6926 40.5551 12.9492 32.5 12.9492ZM16.25 32.4492C7.58333 32.4492 2.16667 36.7826 0 45.4492C3.25 41.1159 7.04167 39.4909 11.375 40.5742C13.8474 41.1923 15.6146 42.986 17.5706 44.9715C20.757 48.2058 24.4449 51.9492 32.5 51.9492C41.1667 51.9492 46.5833 47.6159 48.75 38.9492C45.5 43.2826 41.7083 44.9076 37.375 43.8242C34.9026 43.2061 33.1354 41.4125 31.1794 39.427C27.993 36.1926 24.3051 32.4492 16.25 32.4492Z" fill="url(#paint0_linear_1149_186)"/>
<defs>
<linearGradient id="paint0_linear_1149_186" x1="-180.556" y1="1260.95" x2="5433.26" y2="4497.74" gradientUnits="userSpaceOnUse">
<stop stop-color="#2298BD"/>
<stop offset="1" stop-color="#0ED7B5"/>
</linearGradient>
</defs>
</svg>
