<svg width="65" height="66" viewBox="0 0 65 66" fill="none" xmlns="http://www.w3.org/2000/svg">
<path d="M61.9543 0.0625H3.04571C1.36361 0.0625 0 1.42611 0 3.10821V62.0168C0 63.6989 1.36361 65.0625 3.04571 65.0625H61.9543C63.6364 65.0625 65 63.6989 65 62.0168V3.10821C65 1.42611 63.6364 0.0625 61.9543 0.0625Z" fill="#3178C6"/>
<path fill-rule="evenodd" clip-rule="evenodd" d="M37.7116 50.5751V57.6973C39.0057 58.336 40.3847 58.7855 41.8066 59.0321C43.4497 59.3354 45.1175 59.4846 46.7884 59.4778C48.4168 59.4855 50.0416 59.3214 51.6355 58.988C53.0667 58.6988 54.4321 58.1479 55.6632 57.363C56.8061 56.6252 57.7481 55.6154 58.4048 54.4241C59.5809 51.9571 59.7361 49.1258 58.8366 46.5451C58.457 45.5801 57.8915 44.699 57.1721 43.9521C56.4 43.1578 55.5229 42.4729 54.5652 41.9162C53.4626 41.2704 52.317 40.7011 51.1364 40.2123C50.2079 39.8269 49.3721 39.4524 48.6293 39.0887C47.9695 38.7728 47.3381 38.4008 46.742 37.9767C46.2751 37.6494 45.8696 37.2424 45.5441 36.7742C45.2629 36.3492 45.1164 35.8492 45.1239 35.3396C45.1177 34.8706 45.2484 34.4099 45.5 34.0141C45.7732 33.5997 46.1377 33.2535 46.5655 33.0019C47.0885 32.694 47.6575 32.4722 48.2509 32.345C48.9794 32.1831 49.724 32.1052 50.4702 32.1128C51.0977 32.115 51.7244 32.16 52.3459 32.2475C53.017 32.3382 53.681 32.4755 54.333 32.6583C54.9963 32.8422 55.645 33.075 56.2737 33.3548C56.8839 33.6268 57.4675 33.9547 58.0171 34.3344V27.6882C56.8729 27.2553 55.6863 26.944 54.477 26.7596C53.0165 26.5471 51.542 26.447 50.0662 26.4601C48.4531 26.4514 46.8447 26.6346 45.2748 27.0057C43.8558 27.3299 42.5066 27.9063 41.2913 28.7073C40.1623 29.4593 39.2301 30.4711 38.5729 31.6578C37.8764 32.9756 37.5317 34.4509 37.5723 35.9408C37.5209 37.9112 38.1699 39.836 39.4039 41.373C40.9179 43.0771 42.827 44.3836 44.9637 45.1778C45.9387 45.5802 46.848 45.9741 47.6914 46.3594C48.4524 46.698 49.1839 47.0995 49.8782 47.5596C50.4382 47.9239 50.9301 48.3835 51.3314 48.9176C51.6843 49.4021 51.8716 49.9874 51.8654 50.5867C51.8686 51.0358 51.7532 51.4779 51.5311 51.8682C51.2842 52.2876 50.9373 52.6393 50.5213 52.8919C50.0007 53.2093 49.4312 53.4383 48.8359 53.5698C48.0604 53.7432 47.2672 53.825 46.4727 53.8135C44.9134 53.8107 43.3665 53.5357 41.9018 53.001C40.3715 52.4488 38.9524 51.6272 37.7116 50.5751ZM25.747 32.8441H35.0327V26.9778H9.14178V32.8441H18.3857V58.9694H25.747V32.8441Z" fill="white"/>
</svg>
